**ABCDEFGHIJKLMNOPQRSTUVWXYZabcdefghijklmnopqrstuvwxyz**************************
**PARASOLID !"#$%&'()*+,-./:;<=>?@[\]^_`{|}~0123456789**************************
**PART1;
MC=AMD64;
MC_MODEL=Intel64 Family 6 Model 158 Stepping 10, GenuineIntel;
MC_ID=unknown;
OS=Windows_NT;
OS_RELEASE=unknown;
FRU=Parasolid Version 31.1, build 290,  3- 9-2020;
APPL=SOLIDWORKS 2020-2020296;
SITE=;
USER=unknown;
FORMAT=text;
GUISE=transmit;
KEY=UNIT_front-panel-enclosure x.t;
FILE=UNIT_front-panel-enclosure x.t.x_t;
DATE=Mon Oct  6 16:23:47 2025;
**PART2;
SCH=SCH_3101290_31100;
USFLD_SIZE=0;
**PART3;
**END_OF_HEADER*****************************************************************
T51 : TRANSMIT FILE created by modeller version 310129023 SCH_3101290_31100_1300
6222 0 12 34 CCCCCCI4 mesh1006 0 I8 polyline1008 0 CCCCCCCDI5 owner1040 0 CCCCCC
I13 boundary_mesh1006 0 I17 boundary_polyline1008 0 CCCA16 index_map_offset0 0 1
 dA9 index_map82 0 A17 node_id_index_map82 0 A20 schema_embedding_map82 0 A5 chi
ld12 0 A14 lowest_node_id0 0 1 dA16 mesh_offset_data206 0 Z1 3875 2 3 0 0 0 0 0
 0 1e3 1e-8 0 4 0 1 0 1 1 5 6 7 8 0 0 9 10 11 0 0 0 0 0 0 0 81 255 2 2 3829 12 1
 13 0 0 0 0 14 70 11 CI9 list_type0 0 1 uI10 notransmit0 0 1 lCCCDCCDI12 finger_
index0 0 1 dI12 finger_block1012 0 CZ3 0 4 T1 0 0 11 20 1 15 15 13 255 5 99 0 1
 0 16 0 0 17 0 51 255 6 3144 0 18 19 0 0 +-.007 0 .007 0 -1 0 .004 0 0 -1 32 255
 7 3093 0 10 20 0 0 +-.007 .01283300746922876 .007 0 .906307787036652 -.42261826
1740694 0 -.422618261740694 -.906307787036652 .004413511675849955 .004 29 255 8
 3082 0 11 21 0 -.003 .01283300746922876 .007 19 8 CCCCCCCA5 owner12 0 Z9 33 0 1
 17 0 22 V0 16 255 10 3091 23 ?24 0 25 7 0 0 1 18 255 11 3080 0 26 0 27 8 ?1 17
 255 26 0 28 29 30 11 31 25 0 32 +18 27 3072 0 33 11 34 21 ?1 17 33 0 35 36 37 2
7 38 39 0 30 +18 34 3056 0 40 27 41 42 ?1 29 21 3074 0 27 42 8 -.003 .0492444787
949909 .007 29 42 3058 0 34 43 21 -.101 .0492444787949909 .007 29 43 3050 0 41 4
4 42 -.101 .01283300746922876 .007 18 41 3048 0 45 34 46 43 ?1 29 44 3035 0 46 4
7 43 -.007 .0109677768366088 .003 18 46 3033 0 24 41 48 44 ?1 29 47 3032 0 48 49
 44 -.097 .0109677768366088 .003 18 48 3030 0 50 46 51 47 ?1 29 49 3029 0 51 52
 47 -.097 .0473792481623709 .003 18 51 3027 0 53 48 54 49 ?1 29 52 3026 0 54 55
 49 -.007 .0473792481623709 .003 18 54 3024 0 38 51 56 52 ?1 29 55 2346 0 56 57
 52 -.101 .0496079960808561 .00777956533526287 18 56 2344 0 58 54 59 55 ?1 29 57
 2324 0 59 60 55 -.093 .01244937681235336 .0251069140666313 18 59 2322 0 61 56 6
2 57 ?1 29 60 2308 0 62 63 57 -.003 .0196998391086466 .02172596797270575 18 62 2
306 0 29 59 64 60 ?1 29 63 2289 0 64 65 60 -.011 .0568584583771493 .004398619241
337325 18 64 2287 0 66 62 67 63 ?1 29 65 2135 0 67 68 63 -.011 .0473792481623709
 .003 18 67 2133 0 69 64 70 65 ?1 29 68 2121 0 70 71 65 -.011 .0562062715140708
 .003 18 70 2119 0 72 67 73 68 ?1 29 71 1692 0 73 74 68 -.093 .0473792481623709
 .003 18 73 1690 0 75 70 76 71 ?1 29 74 1675 0 76 77 71 -.093 .0562062715140708
 .003 18 76 1673 0 78 73 79 74 ?1 29 77 1230 0 79 80 74 -.017 .015 .003 18 79 12
28 0 81 76 82 77 ?1 29 80 1213 0 82 83 77 -.087 .015 0 18 82 1211 0 84 79 85 80
 ?1 29 83 75 0 85 86 80 0 0 0 18 85 66 0 87 82 88 83 ?1 29 86 76 0 88 89 83 -.10
4 -857252759403147e-32 0 18 88 67 0 90 85 91 86 ?1 29 89 77 0 91 92 86 -.104 .06
 0 18 91 68 0 93 88 94 89 ?1 29 92 78 0 94 95 89 -1871866050204945e-49 .06 0 18
 94 69 0 96 91 97 92 ?1 29 95 498 0 97 98 92 0 0 .03 18 97 398 0 99 94 100 95 ?1
 29 98 499 0 100 101 95 -.104 0 .03 18 100 403 0 102 97 103 98 ?1 29 101 755 0 1
04 105 98 -3167531707471855e-50 .0101530717129841 .02728107663889005 18 104 677
 0 106 107 108 101 ?1 29 105 756 0 108 109 101 -356307409564637e-49 .01142092649
820618 .03 18 108 679 0 110 104 111 105 ?1 29 109 758 0 111 112 105 -18718660502
04945e-49 .06 .004037072243151875 18 111 674 0 113 108 114 109 ?1 29 112 759 0 1
03 115 109 -.104 .0101530717129841 .02728107663889005 18 103 673 0 116 100 117 1
12 ?1 29 115 760 0 117 118 112 -.104 .01142092649820618 .03 18 117 670 0 119 103
 107 115 ?1 29 118 762 0 107 120 115 -.104 .06 .004037072243151875 18 107 681 0
 121 117 104 118 ?1 29 120 1319 0 114 122 118 -.017 .005 .003 18 114 1276 0 123
 111 124 120 ?1 29 122 1320 0 125 126 120 -.087 .015 .003 18 125 1274 0 127 124
 128 122 ?1 29 126 1322 0 129 130 122 -.017 .005 0 18 129 1269 0 131 132 133 126
 ?1 29 130 1323 0 132 134 126 -.087 .005 0 18 132 1271 0 135 128 129 130 ?1 29 1
34 1325 0 128 136 130 -.017 .015 0 18 128 1272 0 137 125 132 134 ?1 29 136 1326
 0 124 138 134 -.087 .005 .003 18 124 1275 0 139 114 125 136 ?1 29 138 1938 0 13
3 140 136 -.093 .003 .00484266009803661 18 133 1866 0 141 129 142 138 ?1 29 140
 1939 0 142 143 138 -.093 .003 .003 18 142 1859 0 144 133 145 140 ?1 29 143 1941
 0 145 146 140 -.093 .0109677768366088 .003 18 145 1870 0 147 142 148 143 ?1 29
 146 2101 0 148 149 143 -.011 .003 .00484266009803661 18 148 2025 0 150 145 151
 146 ?1 29 149 2102 0 151 152 146 -.011 .003 .003 18 151 2031 0 153 148 154 149
 ?1 29 152 2106 0 154 155 149 -.011 .0109677768366088 .003 18 154 2032 0 156 151
 157 152 ?1 29 155 2734 0 158 159 152 -.101 .05728107663889 .00530492702837396 1
8 158 2629 0 160 161 162 155 ?1 29 159 2736 0 157 163 155 -.093 .049607996080856
1 .00777956533526286 18 157 2622 0 164 154 165 159 ?1 29 163 2738 0 165 166 159
 -.101 .0568584583771493 .00439861924133731 18 165 2626 0 167 157 161 163 ?1 29
 166 2739 0 161 168 163 -.093 .0568584583771493 .00439861924133731 18 161 2628 0
 169 165 158 166 ?1 29 168 2741 0 170 171 166 -.003 .05728107663889 .00530492702
837396 18 170 2450 0 172 173 0 168 ?1 29 171 2745 0 174 175 168 -.003 .056858458
3771493 .00439861924133731 18 174 2447 0 176 177 178 171 ?1 29 175 2746 0 178 17
9 171 -.003 .0496079960808561 .00777956533526286 18 178 2449 0 36 174 173 175 ?1
 29 179 2747 0 173 180 175 -.011 .0496079960808561 .00777956533526286 18 173 245
1 0 181 178 170 179 ?1 29 180 2750 0 177 182 179 -.003 .01287199507409406 .02601
322185366795 18 177 2511 0 183 184 174 180 ?1 29 182 2752 0 185 186 180 -.011 .0
196998391086466 .02172596797270575 18 185 2504 0 187 188 189 182 ?1 29 186 2754
 0 189 190 182 -.003 .01244937681235336 .0251069140666313 18 189 2508 0 191 185
 184 186 ?1 29 190 2755 0 184 192 186 -.011 .01244937681235336 .0251069140666313
 18 184 2510 0 193 189 177 190 ?1 29 192 2757 0 188 194 190 -.101 .0128719950740
9406 .02601322185366795 18 188 2568 0 195 196 185 192 ?1 29 194 2761 0 162 197 1
92 -.101 .01244937681235336 .0251069140666313 18 162 2565 0 198 158 199 194 ?1 2
9 197 2762 0 199 200 194 -.101 .0196998391086466 .02172596797270575 18 199 2567
 0 201 162 196 197 ?1 29 200 2763 0 196 0 197 -.093 .0196998391086466 .021725967
97270575 18 196 2569 0 202 199 188 200 ?1 17 202 0 203 204 61 196 205 206 0 207
 +15 255 203 2589 0 202 208 0 17 204 0 203 209 202 199 207 210 0 0 +17 61 0 203
 202 209 59 211 212 0 205 +17 205 0 213 141 214 59 202 206 0 215 -16 206 2535 21
6 ?202 210 217 218 0 0 1 17 207 0 219 220 201 196 204 210 0 214 -15 219 2337 0 2
21 222 0 17 220 0 219 221 207 145 214 223 0 0 -17 201 0 219 207 45 199 224 225 0
 226 +16 210 2547 227 ?204 228 206 229 0 0 1 17 214 0 213 205 230 196 220 223 0
 0 +15 213 2329 0 205 231 0 17 230 0 213 214 144 145 232 233 0 220 -16 223 1841
 234 ?214 225 235 236 0 0 1 81 2 234 3545 237 223 0 0 238 239 0 0 16 225 3049 24
0 ?201 233 223 241 0 0 1 16 235 2004 242 ?150 223 243 244 0 0 1 30 255 236 1927
 0 223 241 245 0 +-.093 .00515097194145962 -.00947417835290148 -131847462724839e
-47 .422618261740694 .906307787036652 30 241 1928 0 225 246 236 0 +-.101 .005150
97194145962 -.00947417835290148 -131847462724839e-47 .422618261740694 .906307787
036652 30 245 1923 0 247 236 248 0 +-.093 .003 .03 1194943821685462e-48 95184050
507964e-63 -1 16 247 1840 249 ?144 250 251 245 0 0 1 30 248 1778 0 252 245 253 0
 +-.093 .04230959120996235 .003 557211455116923e-48 -1 0 16 252 1725 254 ?75 255
 256 248 0 0 1 30 253 1770 0 256 248 257 0 +-.093 .04230959120996235 -.026801527
08426995 -131847462724839e-47 .422618261740694 .906307787036652 16 256 1709 258
 ?259 252 260 253 0 0 1 30 257 1769 0 260 253 261 0 +-.093 .03505912891366915 -.
0234205809903444 -131847462724839e-47 .422618261740694 .906307787036652 16 260 1
710 262 ?263 256 250 257 0 0 1 30 261 1768 0 250 257 264 0 +-.101 .0350591289136
6915 -.0234205809903444 -131847462724839e-47 .422618261740694 .906307787036652 1
6 250 3057 265 ?58 260 247 261 0 0 1 30 264 1767 0 255 261 266 0 +-.101 .0473792
481623709 .003 -1 0 0 16 255 1726 267 ?268 269 252 264 0 0 1 30 266 1629 0 270 2
64 271 0 +-.101 .0562062715140708 .003 1 0 0 16 270 1674 272 ?273 274 269 266 0
 0 1 30 271 1624 0 269 266 275 0 +-.101 .05728107663889 .00530492702837396 -1 0
 0 16 269 2117 276 ?160 270 255 271 0 0 1 30 275 1318 0 277 271 278 0 +-.017 .00
5 .003 -1 123908819712629e-30 0 16 277 1253 279 ?280 281 282 275 0 0 1 30 278 13
17 0 282 275 283 0 +-.087 .015 .030001 0 0 -1 16 282 1252 284 ?285 277 286 278 0
 0 1 30 283 1316 0 287 278 288 0 +-.017 .015 .030001 0 0 -1 16 287 1256 289 ?137
 290 291 283 0 0 1 30 288 1315 0 292 283 293 0 +-.017 .015 0 1 -123908819712629e
-30 0 16 292 1266 294 ?295 296 297 288 0 0 1 30 293 1314 0 297 288 298 0 +-.087
 .015 0 0 1 0 16 297 1263 299 ?84 292 300 293 0 0 1 30 298 1313 0 300 293 301 0
 +-.017 .005 0 -1 123908819712629e-30 0 16 300 1260 302 ?303 297 290 298 0 0 1 3
0 301 1312 0 290 298 304 0 +-.017 .015 0 0 -1 0 16 290 1257 305 ?306 300 287 301
 0 0 1 30 304 1311 0 274 301 307 0 +-.017 .015 .003 0 -1 0 16 274 1249 308 ?309
 310 270 304 0 0 1 30 307 1310 0 291 304 311 0 +-.017 .015 .003 1 -1239088197126
29e-30 0 16 291 1255 312 ?313 287 281 307 0 0 1 30 311 1309 0 286 307 314 0 +-.0
87 .015 .003 0 1 0 16 286 1251 315 ?316 282 310 311 0 0 1 30 314 1308 0 281 311
 317 0 +-.087 .005 .030001 0 0 -1 16 281 1254 318 ?135 291 277 314 0 0 1 30 317
 1307 0 310 314 319 0 +-.017 .005 .030001 0 0 -1 16 310 1250 320 ?131 286 274 31
7 0 0 1 30 319 1036 0 321 317 322 0 +-.101 .01287199507409406 .02601322185366795
 -1 0 0 16 321 1954 323 ?324 325 296 319 0 0 1 30 322 1027 0 296 319 326 0 +-.10
1 .003 .0048426600980366 1 796556698152616e-31 1708221351766555e-31 16 296 1791
 327 ?328 321 292 322 0 0 1 30 326 746 0 329 322 330 0 +-.104 .0101530717129841
 .02728107663889005 -2827477962650475e-48 .906307787036653 -.422618261740694 16
 329 641 331 ?332 333 334 326 0 0 1 30 330 743 0 333 326 335 0 +-.104 .010153071
7129841 .02728107663889005 1318474627248388e-48 -.4226182617406935 -.90630778703
6653 16 333 630 336 ?337 338 329 330 0 0 1 30 335 742 0 325 330 339 0 +-31675317
07471855e-50 .0101530717129841 .02728107663889005 -2827477962650475e-48 .9063077
87036653 -.422618261740694 16 325 655 238 ?340 334 321 335 0 0 1 30 339 739 0 33
4 335 341 0 +-3167531707471855e-50 .0101530717129841 .02728107663889005 13184746
27248388e-48 -.4226182617406935 -.906307787036653 16 334 664 342 ?343 329 325 33
9 0 0 1 30 341 738 0 344 339 345 0 +-.104 .0101530717129841 .02728107663889005 1
 311977675034158e-47 0 16 344 633 346 ?106 347 348 341 0 0 1 30 345 737 0 348 34
1 349 0 +-.104 .01142092649820618 .03 1 311977675034158e-47 0 16 348 646 350 ?11
0 344 338 345 0 0 1 30 349 735 0 338 345 351 0 +-.104 .06 .004037072243151875 1
 311977675034158e-47 0 16 338 644 352 ?113 348 333 349 0 0 1 30 351 731 0 347 34
9 353 0 +-.003 .003236174856316975 .0305064786138221 0 -.906307787036653 .422618
261740694 16 347 2128 354 ?355 356 344 351 0 0 1 30 353 730 0 356 351 357 0 +-.1
01 .0475914403178538 .00982327864960992 0 .906307787036653 -.422618261740694 16
 356 1802 358 ?359 360 347 353 0 0 1 30 357 484 0 360 353 361 0 +-.101 .003 .003
 1 796556698152616e-31 0 16 360 1808 362 ?363 364 356 357 0 0 1 30 361 477 0 364
 357 365 0 +-.104 .06 .03 0 -1 0 16 364 583 366 ?102 367 360 361 0 0 1 30 365 47
6 0 367 361 368 0 +-.104 0 .03 1 0 0 16 367 345 369 ?370 371 364 365 0 0 1 30 36
8 475 0 371 365 372 0 +0 .06 .03 0 1 0 16 371 348 373 ?374 375 367 368 0 0 1 31
 255 372 288 0 376 368 377 0 +-.032 .0525 0 0 0 1 1 0 0 .0016 16 376 226 378 ?37
9 380 381 372 0 0 1 31 377 286 0 381 372 382 0 +-.032 .0275 0 0 0 1 1 0 0 .0016
 16 381 208 383 ?384 376 375 377 0 0 1 31 382 284 0 375 377 385 0 +-.072 .0275 0
 0 0 1 1 0 0 .0016 16 375 190 386 ?387 381 371 382 0 0 1 31 385 282 0 380 382 38
8 0 +-.072 .0525 0 0 0 1 1 0 0 .0016 16 380 244 389 ?390 391 376 385 0 0 1 30 38
8 74 0 391 385 392 0 +0 0 0 -311977675034158e-47 1 0 16 391 62 393 ?394 395 380
 388 0 0 1 30 392 73 0 395 388 396 0 +-1871866050204945e-49 .06 0 -1 -6672013369
14157e-31 0 16 395 58 397 ?398 399 391 392 0 0 1 30 396 72 0 399 392 400 0 +-.10
4 -857252759403147e-32 0 0 -1 0 16 399 54 401 ?90 402 395 396 0 0 1 30 400 71 0
 402 396 403 0 +0 0 0 1 824281499426103e-31 0 16 402 50 404 ?87 405 399 400 0 0
 1 30 403 95 0 405 400 406 0 +0 0 .003 0 0 -1 16 405 79 407 ?408 409 402 403 0 0
 1 30 406 96 0 409 403 410 0 +-.104 -857252759403147e-32 .003 0 0 -1 16 409 80 4
11 ?412 413 405 406 0 0 1 30 410 97 0 413 406 414 0 +-.104 .06 .003 0 0 -1 16 41
3 595 415 ?93 416 409 410 0 0 1 30 414 98 0 416 410 417 0 +-1871866050204945e-49
 .06 .003 0 0 -1 16 416 608 418 ?96 419 413 414 0 0 1 31 417 1077 0 419 414 420
 0 +-.072 .0525 .001300000000000016 0 0 1 1 0 0 .0016 16 419 1074 421 ?422 423 4
16 417 0 0 1 31 420 1083 0 423 417 424 0 --.032 .0525 .003 0 0 1 1 0 0 .0033 16
 423 1080 425 ?426 427 419 420 0 0 1 31 424 1089 0 427 420 428 0 --.032 .0275 .0
03 0 0 1 1 0 0 .0033 16 427 1086 429 ?430 431 423 424 0 0 1 31 428 1095 0 431 42
4 432 0 --.072 .0275 .003 0 0 1 1 0 0 .0033 16 431 1092 433 ?434 435 427 428 0 0
 1 31 432 1101 0 435 428 436 0 --.072 .0525 .003 0 0 1 1 0 0 .0033 16 435 1098 4
37 ?438 439 431 432 0 0 1 31 436 1107 0 439 432 440 0 +-.072 .0275 .001300000000
000016 0 0 1 1 0 0 .0016 16 439 1104 441 ?442 443 435 436 0 0 1 31 440 1113 0 44
3 436 444 0 +-.032 .0275 .0013 0 0 1 1 0 0 .0016 16 443 1110 445 ?446 447 439 44
0 0 0 1 31 444 1119 0 447 440 448 0 +-.032 .0525 .00129999999999997 0 0 1 1 0 0
 .0016 16 447 1116 449 ?450 451 443 444 0 0 1 30 448 1798 0 451 444 452 0 +-.093
 .000608489748998882 -.000285950185704917 131847462724839e-47 -.4226182617406935
 -.906307787036653 16 451 2323 453 ?141 454 447 448 0 0 1 30 452 1961 0 454 448
 455 0 +-.011 .000608489748998882 -.000285950185704917 -131847462724839e-47 .422
6182617406935 .906307787036653 16 454 1959 456 ?457 458 451 452 0 0 1 30 455 303
8 0 458 452 459 0 +-.007 .0473792481623709 .003 0 1 0 16 458 3036 460 ?461 462 4
54 455 0 0 1 30 459 3044 0 462 455 463 0 +-.097 .0109677768366088 .003 0 -1 0 16
 462 3042 464 ?465 466 458 459 0 0 1 32 463 3053 0 466 459 467 0 +-.097 .0128330
0746922876 .007 0 .906307787036652 -.422618261740694 0 .422618261740694 .9063077
87036652 .004413511675849955 .004 16 466 3051 468 ?45 469 462 463 0 0 1 30 467 3
061 0 469 463 470 0 --.101 .0473792481623709 .007 0 -1 0 16 469 3059 471 ?40 472
 466 467 0 0 1 32 470 3069 0 472 467 473 0 +-.097 .0492444787949909 .007 0 -.906
307787036652 .422618261740694 0 .422618261740694 .906307787036652 .0044135116758
49955 .004 16 472 3067 474 ?53 39 469 470 0 0 1 32 473 3077 0 39 470 20 0 +-.007
 .0492444787949909 .007 0 -.906307787036652 .422618261740694 0 -.422618261740694
 -.906307787036652 .004413511675849955 .004 16 39 3075 475 ?33 25 472 473 0 0 1
 30 20 3085 0 25 473 7 0 --.003 .0109677768366088 .007 0 1 0 16 25 3083 476 ?26
 10 39 20 0 0 1 81 2 476 3488 237 25 0 0 393 327 0 0 80 255 2 237 477 478 9000 0
 0 0 0 3 6 0 0 0 FFFFFFTFFFFFFF9 1 81 2 393 3487 237 391 0 0 302 476 0 0 81 2 32
7 3489 237 296 0 0 476 479 0 0 81 2 479 3490 237 480 0 0 327 299 0 0 16 480 2902
 479 ?481 482 483 484 0 0 1 81 2 299 3491 237 297 0 0 479 308 0 0 81 2 308 3492
 237 274 0 0 299 404 0 0 81 2 404 3493 237 402 0 0 308 362 0 0 81 2 362 3494 237
 360 0 0 404 471 0 0 81 2 471 3495 237 469 0 0 362 485 0 0 81 2 485 3496 237 486
 0 0 471 487 0 0 16 486 2019 485 ?488 243 489 490 0 0 1 81 2 487 3497 237 491 0
 0 485 323 0 0 16 491 2606 487 ?492 493 494 495 0 0 1 81 2 323 3498 237 321 0 0
 487 496 0 0 81 2 496 3499 237 497 0 0 323 464 0 0 16 497 2878 496 ?498 499 500
 501 0 0 1 81 2 464 3500 237 462 0 0 496 502 0 0 81 2 502 3501 237 503 0 0 464 5
04 0 0 16 503 3073 502 ?36 505 506 507 0 0 1 81 2 504 3502 237 508 0 0 502 509 0
 0 16 508 2480 504 ?187 217 510 511 0 0 1 81 2 509 3503 237 494 0 0 504 512 0 0
 16 494 2594 509 ?513 491 514 515 0 0 1 81 2 512 3504 237 516 0 0 509 227 0 0 16
 516 2429 512 ?517 518 499 519 0 0 1 81 2 227 3505 237 210 0 0 512 289 0 0 81 2
 289 3506 237 287 0 0 227 279 0 0 81 2 279 3507 237 277 0 0 289 520 0 0 81 2 520
 3508 237 217 0 0 279 23 0 0 16 217 2491 520 ?521 206 508 522 0 0 1 81 2 23 3509
 237 10 0 0 520 523 0 0 81 2 523 3510 237 524 0 0 23 525 0 0 16 524 2882 523 ?52
6 483 0 527 0 0 1 81 2 525 3511 237 212 0 0 523 407 0 0 16 212 2539 525 ?61 514
 228 528 0 0 1 81 2 407 3512 237 405 0 0 525 529 0 0 81 2 529 3513 237 228 0 0 4
07 530 0 0 16 228 2543 529 ?209 212 210 531 0 0 1 81 2 530 3514 237 532 0 0 529
 453 0 0 16 532 3081 530 ?29 489 533 534 0 0 1 81 2 453 3515 237 451 0 0 530 294
 0 0 81 2 294 3516 237 292 0 0 453 535 0 0 81 2 535 3517 237 533 0 0 294 415 0 0
 16 533 3025 535 ?69 532 505 536 0 0 1 81 2 415 3518 237 413 0 0 535 373 0 0 81
 2 373 3519 237 371 0 0 415 240 0 0 81 2 240 3520 237 225 0 0 373 468 0 0 81 2 4
68 3521 237 466 0 0 240 537 0 0 81 2 537 3522 237 538 0 0 468 386 0 0 16 538 242
1 537 ?66 539 518 540 0 0 1 81 2 386 3523 237 375 0 0 537 411 0 0 81 2 411 3524
 237 409 0 0 386 354 0 0 81 2 354 3525 237 347 0 0 411 541 0 0 81 2 541 3526 237
 542 0 0 354 441 0 0 16 542 2598 541 ?164 543 493 544 0 0 1 81 2 441 3527 237 43
9 0 0 541 449 0 0 81 2 449 3528 237 447 0 0 441 249 0 0 81 2 249 3529 237 247 0
 0 449 242 0 0 81 2 242 3530 237 235 0 0 249 545 0 0 81 2 545 3531 237 489 0 0 2
42 474 0 0 16 489 2006 545 ?546 486 532 547 0 0 1 81 2 474 3532 237 472 0 0 545
 475 0 0 81 2 475 3533 237 39 0 0 474 433 0 0 81 2 433 3534 237 431 0 0 475 548
 0 0 81 2 548 3535 237 518 0 0 433 358 0 0 16 518 2425 548 ?549 538 516 550 0 0
 1 81 2 358 3536 237 356 0 0 548 551 0 0 81 2 551 3537 237 552 0 0 358 262 0 0 1
6 552 2476 551 ?553 554 539 555 0 0 1 81 2 262 3538 237 260 0 0 551 556 0 0 81 2
 556 3539 237 557 0 0 262 305 0 0 16 557 2942 556 ?558 500 559 560 0 0 1 81 2 30
5 3540 237 290 0 0 556 429 0 0 81 2 429 3541 237 427 0 0 305 401 0 0 81 2 401 35
42 237 399 0 0 429 331 0 0 81 2 331 3543 237 329 0 0 401 238 0 0 81 2 238 3544 2
37 325 0 0 331 234 0 0 17 558 0 561 558 558 0 562 557 0 0 +16 500 2938 563 ?564
 497 557 565 0 0 1 16 559 2920 566 ?567 557 482 568 0 0 1 31 560 2983 0 557 527
 565 0 +-.097 .0532332272290027 .0060890922883001 0 .4226182617406935 .906307787
036653 0 -.906307787036653 .4226182617406935 .00135 31 527 2985 0 524 569 560 0
 +-.007 .0532332272290027 .0060890922883001 0 .4226182617406935 .906307787036653
 0 .906307787036653 -.4226182617406935 .00135 32 565 2982 0 500 560 501 0 +-.097
 .0503938368637559 0 0 0 1 0 1 0 .001489560190599368 .00135 32 501 2981 0 497 56
5 218 0 +-.007 .0503938368637559 0 0 0 1 0 1 0 .00148956019059936 .00135 30 218
 2731 0 206 501 229 0 +-.093 .0196998391086466 .02172596797270575 0 .90630778703
6652 -.422618261740694 30 229 2730 0 210 218 531 0 +-.093 .0196998391086466 .021
72596797270575 -1 -4336808689942015e-31 0 30 531 2729 0 228 229 528 0 +-.101 .01
96998391086466 .02172596797270575 0 -.906307787036652 .422618261740694 30 528 27
28 0 212 531 570 0 +-.093 .01244937681235336 .0251069140666313 1 216840434497100
5e-31 0 30 570 2722 0 514 528 555 0 +-.101 .01244937681235336 .0251069140666313
 -131847462724839e-47 .422618261740694 .906307787036652 16 514 2546 571 ?572 494
 212 570 0 0 1 30 555 2719 0 552 570 573 0 +-.011 .0196998391086466 .02172596797
270575 0 -.906307787036652 .422618261740694 30 573 2718 0 554 555 574 0 +-.011 .
01244937681235336 .0251069140666313 1 -2168404344971005e-31 0 16 554 2488 575 ?5
76 510 552 573 0 0 1 30 574 2717 0 510 573 511 0 +-.003 .0196998391086466 .02172
596797270575 0 .906307787036652 -.422618261740694 16 510 2484 577 ?578 508 554 5
74 0 0 1 30 511 2716 0 508 574 522 0 +-.011 .0196998391086466 .02172596797270575
 -1 4336808689942015e-31 0 30 522 2709 0 217 511 579 0 +-.003 .01244937681235336
 .0251069140666313 -131847462724839e-47 .422618261740694 .906307787036652 30 579
 2707 0 499 522 519 0 +-.011 .0496079960808561 .00777956533526286 0 -.9063077870
36653 .4226182617406935 16 499 2417 580 ?181 516 497 579 0 0 1 30 519 2706 0 516
 579 550 0 +-.011 .0496079960808561 .00777956533526286 1 0 0 30 550 2705 0 518 5
19 540 0 +-.003 .0496079960808561 .00777956533526286 0 .906307787036653 -.422618
2617406935 30 540 2704 0 538 550 581 0 +-.011 .0568584583771493 .004398619241337
31 -1 0 0 30 581 2698 0 539 540 515 0 +-.003 .0568584583771493 .0043986192413373
1 -131847462724839e-47 .422618261740694 .906307787036652 16 539 2428 582 ?583 55
2 538 581 0 0 1 30 515 2695 0 494 581 495 0 +-.093 .0496079960808561 .0077795653
3526286 0 .906307787036653 -.4226182617406935 30 495 2694 0 491 515 584 0 +-.093
 .0568584583771493 .00439861924133731 -1 0 0 30 584 2693 0 493 495 544 0 +-.101
 .0496079960808561 .00777956533526286 0 -.906307787036653 .4226182617406935 16 4
93 2602 585 ?586 542 491 584 0 0 1 30 544 2692 0 542 584 587 0 +-.093 .049607996
0808561 .00777956533526286 1 0 0 30 587 2685 0 543 544 588 0 +-.101 .05685845837
71493 .00439861924133731 -131847462724839e-47 .422618261740694 .906307787036652
 16 543 2609 589 ?590 591 542 587 0 0 1 30 588 2221 0 505 587 536 0 +-.011 .0423
0959120996235 .003 -557211455116923e-48 1 0 16 505 2168 592 ?72 533 503 588 0 0
 1 30 536 2220 0 533 588 507 0 +-.003 .0473792481623709 .003 -1 0 0 30 507 2214
 0 503 536 593 0 +-.003 .03505912891366915 -.0234205809903444 -131847462724839e-
47 .422618261740694 .906307787036652 30 593 2213 0 506 507 594 0 +-.011 .0350591
2891366915 -.0234205809903444 -131847462724839e-47 .422618261740694 .90630778703
6652 16 506 2152 595 ?596 503 591 593 0 0 1 30 594 2212 0 591 593 490 0 +-.011 .
04230959120996235 -.02680152708426995 -131847462724839e-47 .422618261740694 .906
307787036652 16 591 2153 239 ?597 506 543 594 0 0 1 30 490 2098 0 486 594 547 0
 +-.011 -.002099490354833605 .003 -557211455116923e-48 1 0 30 547 2089 0 489 490
 534 0 +-.011 .00515097194145962 -.00947417835290148 -131847462724839e-47 .42261
8261740694 .906307787036652 30 534 2088 0 532 547 598 0 +-.003 .0051509719414596
2 -.00947417835290148 -131847462724839e-47 .422618261740694 .906307787036652 30
 598 2087 0 243 534 244 0 +-.003 .0109677768366088 .003 1 0 0 16 243 2020 599 ?6
00 235 486 598 0 0 1 30 244 2086 0 235 598 601 0 +-.011 .003 .03 -11949438216854
62e-48 -95184050507964e-63 1 30 601 1935 0 233 244 246 0 +-.093 -.00209949035483
3605 .003 557211455116923e-48 -1 0 16 233 1858 602 ?232 251 225 601 0 0 1 30 246
 1934 0 251 601 241 0 +-.101 .0109677768366088 .003 1 0 0 16 251 3031 603 ?147 2
47 233 246 0 0 1 81 2 603 3474 237 251 0 0 592 577 0 0 17 147 0 604 232 465 145
 221 251 0 230 +15 604 2138 0 268 605 606 17 232 0 604 363 147 142 230 233 0 607
 +17 465 0 604 147 268 48 608 462 0 221 +17 221 0 219 45 220 48 147 251 0 0 -17
 45 0 219 201 221 41 50 466 0 224 +17 50 0 609 608 610 48 45 466 0 465 -17 224 0
 611 40 226 41 201 225 0 610 -15 611 1825 0 224 612 0 17 40 0 611 58 224 34 610
 469 0 613 +17 226 0 611 224 198 199 209 228 0 204 -17 610 0 609 50 614 41 40 46
9 0 0 -15 609 3112 0 614 615 0 17 614 0 609 610 608 34 53 472 0 0 -17 608 0 609
 614 50 51 465 462 0 0 -17 53 0 616 617 613 51 614 472 0 268 +15 616 1750 0 613
 618 0 17 617 0 616 263 53 73 268 255 0 0 -17 613 0 616 53 619 34 58 250 0 614 -
17 268 0 604 465 75 51 617 255 0 608 +17 75 0 604 268 620 73 621 252 0 622 +17 6
20 0 604 75 72 76 273 270 0 621 -17 621 0 623 259 622 76 75 252 0 0 -17 622 0 62
3 621 624 73 263 260 0 617 -15 623 1746 0 259 16 0 17 624 0 623 622 259 157 513
 494 0 263 -17 263 0 616 619 617 157 622 260 0 0 +17 619 0 616 613 263 56 164 54
2 0 0 -17 164 0 625 513 586 157 619 542 0 624 +15 625 2648 0 513 626 0 17 513 0
 625 492 164 161 624 494 0 259 +17 586 0 625 164 492 56 627 493 0 619 +17 492 0
 625 586 513 165 169 491 0 0 +17 627 0 611 590 58 165 586 493 0 492 -17 590 0 61
1 195 627 158 167 543 0 0 +17 58 0 611 627 40 56 613 250 0 586 +17 195 0 611 198
 590 188 359 356 0 324 -17 167 0 628 169 160 165 590 543 0 627 -15 628 1594 0 27
3 629 0 17 169 0 628 78 167 161 492 491 0 513 -17 160 0 628 167 583 158 630 269
 0 359 +17 583 0 628 160 631 170 176 539 0 0 +17 630 0 632 355 359 170 160 269 0
 583 -17 359 0 632 630 324 158 195 356 0 590 +15 632 2236 0 630 633 634 17 324 0
 632 359 355 188 183 321 0 572 +17 355 0 632 324 630 177 172 347 0 521 +17 183 0
 635 191 572 177 324 321 0 355 -17 572 0 635 183 211 188 198 514 0 0 +15 635 196
0 0 636 637 0 17 211 0 635 572 215 162 61 212 0 0 -17 198 0 611 226 195 162 572
 514 0 209 -17 209 0 203 61 204 162 226 228 0 211 +17 215 0 635 211 638 59 141 4
51 0 0 -17 638 0 635 215 636 133 328 296 0 0 -17 141 0 213 144 205 133 215 451 0
 639 +17 144 0 213 230 141 142 639 247 0 232 +17 639 0 640 328 607 133 144 247 0
 638 -15 640 1990 0 641 642 0 17 328 0 640 641 639 148 638 296 0 0 +17 607 0 640
 639 641 142 363 360 0 0 -17 641 0 640 607 328 151 150 235 0 363 -17 363 0 604 4
88 232 151 607 360 0 0 +17 488 0 604 600 363 154 153 486 0 0 +17 600 0 604 461 4
88 46 643 243 0 644 +17 153 0 645 150 156 151 488 486 0 641 -15 645 2062 0 457 6
46 0 17 150 0 645 457 153 148 641 235 0 636 +17 156 0 645 153 647 154 546 489 0
 643 -17 647 0 645 156 457 185 553 552 0 546 -17 546 0 648 649 643 185 156 489 0
 0 +17 643 0 648 546 24 154 600 243 0 488 -15 648 2066 0 32 650 0 17 24 0 648 64
3 32 46 651 10 0 600 +17 32 0 648 24 649 11 29 532 0 651 -17 651 0 652 31 644 11
 24 10 0 0 -15 652 3133 0 651 18 0 17 31 0 652 38 651 27 26 25 0 0 -17 644 0 652
 651 38 46 461 458 0 0 -17 38 0 652 644 31 54 33 39 0 461 -17 461 0 604 69 600 5
4 644 458 0 37 +17 69 0 604 72 461 67 37 533 0 653 +17 37 0 35 33 654 54 69 533
 0 0 -15 35 2299 0 37 655 0 17 654 0 35 37 656 67 596 506 0 0 -17 656 0 35 654 3
6 173 517 516 0 596 -17 596 0 657 658 653 173 654 506 0 0 +15 657 2291 0 658 659
 0 17 658 0 657 660 596 64 181 499 0 597 -17 653 0 657 596 660 67 72 505 0 654 -
17 660 0 657 653 658 70 597 591 0 0 -17 72 0 604 620 69 70 653 505 0 273 +17 273
 0 628 597 78 70 620 270 0 660 +17 597 0 628 631 273 64 660 591 0 0 +17 78 0 628
 273 169 76 259 256 0 620 -17 259 0 623 624 621 161 78 256 0 0 +17 631 0 628 583
 597 174 66 538 0 0 -17 66 0 661 181 549 64 631 538 0 658 +15 661 2471 0 181 662
 0 17 181 0 661 517 66 173 658 499 0 656 +17 549 0 661 66 517 174 663 518 0 631
 +17 517 0 661 549 181 178 656 516 0 0 +17 663 0 28 30 176 178 549 518 0 517 -15
 28 2144 0 30 664 0 17 30 0 28 26 663 27 36 503 0 31 -17 176 0 28 663 172 174 58
3 539 0 549 -17 172 0 28 176 521 170 355 347 0 630 -17 521 0 28 172 665 177 191
 217 0 0 +17 665 0 28 521 29 189 578 510 0 576 -17 191 0 635 193 183 189 521 217
 0 665 -17 193 0 635 636 191 184 576 554 0 553 -17 636 0 635 638 193 148 457 454
 0 328 -17 576 0 666 578 553 189 193 554 0 0 +17 553 0 666 576 187 184 647 552 0
 457 +15 666 2530 0 553 667 0 17 187 0 666 553 578 185 649 508 0 647 +17 457 0 6
45 647 150 184 636 454 0 0 +17 578 0 666 187 576 62 665 510 0 649 +17 649 0 648
 32 546 62 187 508 0 0 -14 255 667 2528 668 ?208 662 669 5 670 +0 0 208 662 22 8
1 1 668 3830 671 667 672 0 0 673 674 14 208 2587 673 ?626 667 675 5 676 -0 0 626
 667 22 14 662 2469 677 ?667 659 678 5 679 -0 0 667 659 22 15 669 2857 0 680 667
 666 50 255 670 2677 0 667 676 679 0 +2659040541696145e-33 .011840041826831 .025
39105163676215 916407275022615e-31 .422618261740694 .906307787036652 0 -.9063077
87036652 .422618261740694 13 22 34 0 0 0 0 0 0 9 16 14 16 2358 681 ?618 0 623 5
 682 +0 0 618 0 22 81 1 681 3833 671 16 683 0 677 684 685 14 618 2350 684 ?646 1
6 616 5 686 +0 0 646 16 22 50 682 1763 0 16 687 686 0 +-.093 .04230959120996235
 -.02680152708426995 1 557211455116923e-48 1194943821685462e-48 1194943821685462
e-48 0 -1 50 687 1916 0 231 688 682 0 +-.093 -.002099490354833605 -.006093232258
97593 1 557211455116923e-48 1194943821685462e-48 1194943821685462e-48 0 -1 50 68
6 1762 0 618 682 689 0 +-.101 .03505912891366915 -.0234205809903444 0 -.90630778
7036652 .422618261740694 0 -.422618261740694 -.906307787036652 50 689 1616 0 629
 686 690 0 +-.101 .012618124278529 -.0904750833988105 0 .906307787036653 -.42261
8261740694 0 .422618261740694 .906307787036653 14 629 1591 691 ?222 692 628 5 68
9 -0 0 222 692 22 50 690 1306 0 692 689 693 0 +-.017 .015 .030001 12390881971262
9e-30 1 0 -1 123908819712629e-30 0 14 692 1289 694 ?629 695 696 5 690 -0 0 629 6
95 22 50 693 1303 0 695 690 697 0 +-.017 .005 .030001 -123908819712629e-30 -1 0
 1 -123908819712629e-30 0 14 695 1285 698 ?692 699 700 5 693 -0 0 692 699 22 50
 697 1302 0 699 693 701 0 +-.087 .015 .030001 -1 0 0 0 0 1 14 699 1281 702 ?695
 703 704 5 697 -0 0 695 703 22 50 701 1301 0 703 697 705 0 +-.017 .015 .030001 1
 0 0 0 0 -1 14 703 1277 706 ?699 707 708 5 701 -0 0 699 707 22 50 705 1022 0 637
 701 709 0 +-.101 .000608489748998882 -.000285950185704917 0 .906307787036653 -.
4226182617406935 0 .4226182617406935 .906307787036653 14 637 1002 710 ?711 633 6
35 5 705 +0 0 711 633 22 50 709 726 0 712 705 713 0 +-.104 .0101530717129841 .02
728107663889005 2827477962650475e-48 -.906307787036653 .4226182617406935 0 -.422
6182617406935 -.906307787036653 14 712 940 714 ?612 650 715 5 709 -0 0 612 650 2
2 50 713 723 0 633 709 716 0 +-.104 .0101530717129841 .02728107663889005 1318474
62724839e-47 -.422618261740694 -.906307787036653 0 .906307787036653 -.4226182617
40694 14 633 699 717 ?637 718 632 5 713 -0 0 637 718 22 50 716 464 0 664 713 719
 0 +-.003 .003 .03 -1 0 0 0 0 1 14 664 805 720 ?721 642 28 5 716 +0 0 721 642 22
 50 719 463 0 642 716 722 0 +-.101 .003 .03 -796556698152616e-31 1 0 -1 -7965566
98152616e-31 0 14 642 813 723 ?664 612 640 5 719 +0 0 664 612 22 50 722 462 0 61
2 719 724 0 +-.101 .057 .03 1 0 0 0 0 -1 14 612 818 725 ?642 712 611 5 722 +0 0
 642 712 22 50 724 461 0 718 722 726 0 +0 0 .03 0 0 1 1 0 0 14 718 414 727 ?633
 728 729 5 724 +0 0 633 728 22 51 726 278 0 730 724 731 0 +-.032 .0525 0 0 0 1 .
0016 1 0 0 14 730 232 732 ?733 734 735 5 726 -0 0 733 734 22 51 731 275 0 733 72
6 736 0 +-.032 .0275 0 0 0 1 .0016 1 0 0 14 733 214 737 ?728 730 738 5 731 -0 0
 728 730 22 51 736 272 0 728 731 739 0 +-.072 .0275 0 0 0 1 .0016 1 0 0 14 728 1
96 740 ?718 733 741 5 736 -0 0 718 733 22 51 739 269 0 734 736 742 0 +-.072 .052
5 0 0 0 1 .0016 1 0 0 14 734 250 743 ?730 744 745 5 739 -0 0 730 744 22 50 742 3
 0 605 739 746 0 +0 0 .003 0 0 1 1 0 0 14 605 1 747 ?744 748 604 5 742 +0 0 744
 748 22 50 746 70 0 744 742 749 0 +0 0 0 0 0 1 1 0 0 14 744 48 750 ?734 605 751
 5 746 -0 0 734 605 22 50 749 91 0 748 746 752 0 +0 0 .003 -824281499426103e-31
 1 0 -1 -824281499426103e-31 0 14 748 84 753 ?605 754 755 5 749 -0 0 605 754 22
 50 752 92 0 754 749 756 0 +-.104 -857252759403147e-32 .003 1 0 0 0 0 -1 14 754
 86 757 ?748 758 759 5 752 -0 0 748 758 22 50 756 93 0 758 752 760 0 +-187186605
0204945e-49 .06 .003 667201336914157e-31 -1 0 1 667201336914157e-31 0 14 758 88
 761 ?754 721 762 5 756 -0 0 754 721 22 50 760 94 0 721 756 763 0 +0 0 .003 -1 -
311977675034158e-47 0 311977675034158e-47 -1 0 14 721 90 764 ?758 664 765 5 760
 -0 0 758 664 22 52 255 763 1138 766 711 760 767 0 --.072 .0525 .001300000000000
016 0 0 1 .0016 .707106781186549 .707106781186546 1 0 0 81 2 766 1139 768 763 0
 0 0 769 770 771 14 711 1131 772 ?773 637 774 5 763 +0 0 773 637 22 52 767 1152
 769 773 763 775 0 --.072 .0275 .001300000000000016 0 0 1 .0016 .707106781186549
 .707106781186546 1 0 0 81 2 769 1153 768 767 0 0 766 776 777 778 14 773 1145 77
9 ?780 711 781 5 767 +0 0 780 711 22 52 775 1166 776 780 767 782 0 --.032 .0275
 .0013 0 0 1 .0016 .707106781186549 .707106781186546 1 0 0 81 2 776 1167 768 775
 0 0 769 783 784 785 14 780 1159 786 ?707 773 787 5 775 +0 0 707 773 22 52 782 1
180 783 707 775 19 0 --.032 .0525 .00129999999999997 0 0 1 .0016 .70710678118654
6 .707106781186549 1 0 0 81 2 783 1181 768 782 0 0 776 0 788 789 14 707 1173 790
 ?703 780 791 5 782 +0 0 703 780 22 51 19 3123 0 615 782 6 0 +-.097 0 .007 0 1 0
 .004 0 0 1 14 615 3111 792 ?18 793 609 5 19 -0 0 18 793 22 81 1 792 3861 671 61
5 794 0 790 795 796 14 18 3132 795 ?0 615 652 5 6 -0 0 0 615 22 14 793 2885 797
 ?615 798 799 5 800 -0 0 615 798 22 81 1 797 3863 671 793 801 0 795 802 803 14 7
98 2913 802 ?793 804 805 5 806 -0 0 793 804 22 15 799 2888 0 526 793 807 51 800
 2972 0 793 808 809 0 +-.007 .0498522811350772 -.001161370007993126 0 .422618261
7406935 .906307787036653 .00135 0 -.906307787036653 .4226182617406935 51 808 297
5 0 804 806 800 0 +-.007 .01269366186657444 .0161659787233753 0 .422618261740693
5 .906307787036653 .00135 0 -.906307787036653 .4226182617406935 51 809 2969 0 81
0 800 676 0 +-.097 .0498522811350772 -.001161370007993126 0 .4226182617406935 .9
06307787036653 .00135 0 -.906307787036653 .4226182617406935 14 810 2945 811 ?812
 626 561 5 809 -0 0 812 626 22 50 676 2683 0 208 809 670 0 +-2659040541696145e-3
3 .01184004182683102 .02539105163676215 916407275022615e-31 -.422618261740694 -.
906307787036652 0 .906307787036652 -.422618261740694 81 1 811 3865 671 810 813 0
 802 814 815 14 812 2926 814 ?816 810 817 5 818 -0 0 816 810 22 14 626 2646 819
 ?810 208 820 5 821 +0 0 810 208 22 15 561 2948 0 558 810 822 15 822 2949 0 823
 810 0 17 823 0 822 823 823 0 564 500 0 0 -17 564 0 824 564 564 0 823 500 0 0 +1
5 824 2868 0 564 744 825 15 825 1209 0 826 744 827 17 826 0 825 828 829 132 84 2
97 0 0 -15 827 160 0 387 744 830 17 387 0 827 387 387 0 831 375 0 0 +15 830 154
 0 384 744 832 17 384 0 830 384 384 0 833 381 0 0 +15 832 148 0 379 744 834 17 3
79 0 832 379 379 0 835 376 0 0 +15 834 142 0 390 744 836 17 390 0 834 390 390 0
 837 380 0 0 +15 836 49 0 838 744 0 17 838 0 836 839 840 85 394 391 0 0 -17 839
 0 836 841 838 88 87 402 0 0 -17 840 0 836 838 841 94 398 395 0 394 -17 394 0 76
5 842 408 94 838 391 0 0 +15 765 89 0 842 721 0 17 842 0 765 843 394 111 96 416
 0 0 -17 408 0 765 394 844 85 99 405 0 838 +17 844 0 765 408 845 97 374 371 0 0
 -17 99 0 755 846 87 97 408 405 0 370 -15 755 83 0 87 748 0 17 846 0 755 412 99
 100 370 367 0 0 -17 87 0 755 99 412 85 839 402 0 408 +17 370 0 729 374 102 97 8
46 367 0 844 +15 729 591 0 119 718 0 17 374 0 729 119 370 108 844 371 0 0 +17 10
2 0 729 370 119 100 847 364 0 848 +17 119 0 729 102 374 117 110 348 0 849 -17 84
7 0 759 337 848 117 102 364 0 0 -17 848 0 759 847 90 100 412 409 0 846 -15 759 8
5 0 337 754 0 17 90 0 759 848 93 88 841 399 0 412 +17 412 0 755 87 846 88 848 40
9 0 839 +17 93 0 759 90 332 91 850 413 0 398 +17 841 0 836 840 839 91 90 399 0 0
 -17 332 0 759 93 337 107 851 329 0 850 +17 850 0 762 113 398 107 93 413 0 0 -17
 398 0 762 850 96 91 840 395 0 841 +15 762 87 0 850 758 0 17 96 0 762 398 113 94
 842 416 0 840 +17 113 0 762 96 850 111 121 338 0 340 +17 121 0 634 851 340 107
 113 338 0 332 -17 340 0 634 121 106 111 843 325 0 842 +15 634 1053 0 340 633 0
 17 106 0 634 340 851 104 116 344 0 343 +17 843 0 765 845 842 104 340 325 0 0 -1
7 845 0 765 844 843 108 343 334 0 374 -17 343 0 715 116 110 104 845 334 0 843 +1
5 715 938 0 343 712 0 17 116 0 715 849 343 103 106 344 0 851 -17 110 0 715 343 8
49 108 119 348 0 845 +17 849 0 715 110 116 117 337 333 0 847 -17 337 0 759 332 8
47 103 849 333 0 0 +17 851 0 634 106 121 103 332 329 0 337 -17 837 0 852 837 837
 0 390 380 0 0 -15 852 253 0 837 734 0 17 835 0 853 835 835 0 379 376 0 0 -15 85
3 235 0 835 730 0 17 833 0 854 833 833 0 384 381 0 0 -15 854 217 0 833 733 0 17
 831 0 855 831 831 0 387 375 0 0 -15 855 199 0 831 728 0 17 828 0 825 856 826 12
9 303 300 0 0 -17 829 0 825 826 856 82 295 292 0 0 -17 84 0 704 857 135 82 826 2
97 0 285 +15 704 1284 0 135 699 0 17 857 0 704 139 84 125 285 282 0 316 -17 135
 0 704 84 139 132 858 281 0 303 +17 285 0 696 295 127 82 857 282 0 829 +15 696 1
292 0 285 692 0 17 295 0 696 81 285 128 829 292 0 856 +17 127 0 696 285 81 125 3
13 291 0 857 -17 81 0 696 127 295 79 137 287 0 859 -17 313 0 606 309 316 79 127
 291 0 0 +15 606 1244 0 280 605 860 17 309 0 606 280 313 114 859 274 0 0 +17 316
 0 606 313 280 125 139 286 0 0 +17 280 0 606 316 309 124 123 277 0 0 +17 139 0 7
04 135 857 124 316 286 0 858 -17 858 0 700 123 303 124 135 281 0 280 -15 700 128
8 0 131 695 0 17 123 0 700 131 858 114 280 277 0 861 -17 303 0 700 858 131 132 8
28 300 0 826 +17 131 0 700 303 123 129 861 310 0 306 +17 861 0 708 859 306 114 1
31 310 0 309 -17 306 0 708 861 137 129 856 290 0 828 +15 708 1280 0 137 703 0 17
 137 0 708 306 859 128 81 287 0 295 +17 856 0 825 829 828 128 306 290 0 0 -17 85
9 0 708 137 861 79 309 274 0 313 -15 860 1099 0 438 605 862 17 438 0 860 438 438
 0 863 435 0 0 +15 862 1093 0 434 605 864 17 434 0 862 434 434 0 865 431 0 0 +15
 864 1087 0 430 605 866 17 430 0 864 430 430 0 867 427 0 0 +15 866 1081 0 426 60
5 0 17 426 0 866 426 426 0 868 423 0 0 +17 868 0 791 868 868 0 426 423 0 0 -15 7
91 1174 0 868 707 869 15 869 1175 0 870 707 0 17 870 0 869 870 870 0 450 447 0 0
 -17 450 0 735 450 450 0 870 447 0 0 +15 735 1117 0 450 730 853 17 867 0 787 867
 867 0 430 427 0 0 -15 787 1160 0 867 780 871 15 871 1161 0 872 780 0 17 872 0 8
71 872 872 0 446 443 0 0 -17 446 0 738 446 446 0 872 443 0 0 +15 738 1111 0 446
 733 854 17 865 0 781 865 865 0 434 431 0 0 -15 781 1146 0 865 773 873 15 873 11
47 0 874 773 0 17 874 0 873 874 874 0 442 439 0 0 -17 442 0 741 442 442 0 874 43
9 0 0 +15 741 1105 0 442 728 855 17 863 0 774 863 863 0 438 435 0 0 -15 774 1132
 0 863 711 875 15 875 1133 0 876 711 0 17 876 0 875 876 876 0 422 419 0 0 -17 42
2 0 745 422 422 0 876 419 0 0 +15 745 1075 0 422 734 852 81 1 819 3867 671 626 8
77 0 814 878 879 15 820 2845 0 562 626 625 50 821 2665 0 626 679 880 0 +13184746
2724839e-50 .011840041826831 .02539105163676215 0 .4226182617406935 .90630778703
6653 0 -.906307787036653 .4226182617406935 50 679 2671 0 662 670 821 0 +13184746
2724839e-50 .011840041826831 .02539105163676215 0 -.4226182617406935 -.906307787
036653 0 .906307787036653 -.4226182617406935 50 880 2207 0 655 821 881 0 +-.003
 .03505912891366915 -.0234205809903444 0 -.906307787036652 .422618261740694 0 -.
422618261740694 -.906307787036652 14 655 2182 878 ?659 231 35 5 880 +0 0 659 231
 22 50 881 2206 0 659 880 882 0 +-.011 .04230959120996235 -.02680152708426995 -1
 -557211455116923e-48 -1194943821685462e-48 -1194943821685462e-48 0 1 14 659 218
6 883 ?662 655 657 5 881 +0 0 662 655 22 50 882 2079 0 646 881 884 0 +-.011 -.00
2099490354833605 -.00609323225897593 -1 -557211455116923e-48 -1194943821685462e-
48 -1194943821685462e-48 0 1 14 646 2320 885 ?650 618 645 5 882 +0 0 650 618 22
 50 884 2078 0 650 882 688 0 +-.003 .00515097194145962 -.00947417835290148 0 .90
6307787036652 -.422618261740694 0 .422618261740694 .906307787036652 14 650 2312
 886 ?712 646 648 5 884 +0 0 712 646 22 50 688 1917 0 222 884 687 0 +-.101 .0051
5097194145962 -.00947417835290148 0 .906307787036652 -.422618261740694 0 .422618
261740694 .906307787036652 14 222 1892 887 ?231 629 219 5 688 +0 0 231 629 22 81
 1 887 3872 671 222 888 0 886 889 890 14 231 1896 889 ?655 222 213 5 687 +0 0 65
5 222 22 81 1 889 3873 671 231 891 0 887 892 893 80 1 671 894 895 9000 1 1 1 1 1
 1 1 1 0 FFFFTFTFFFFFFF1 81 1 891 3698 896 231 897 889 888 898 899 81 1 892 3874
 671 816 900 0 889 901 902 82 255 1 893 1004143055 14 816 2931 892 ?804 812 903
 5 904 +0 0 804 812 22 81 1 900 3707 896 816 905 892 906 907 908 81 1 901 3875 6
71 804 907 0 892 0 909 82 1 902 1266418129 14 804 2908 901 ?798 816 910 5 808 -0
 0 798 816 22 81 1 907 3708 896 804 911 901 900 912 913 82 1 909 1272316369 80 1
 896 0 914 8001 0 0 0 0 3 5 0 0 0 FFFFTFTFFFFFFF2 81 2 911 3297 915 804 0 907 90
5 916 0 0 81 1 912 3709 896 798 916 802 907 801 917 83 255 3 913 .75294117647058
8 .752941176470588 .752941176470588 81 2 916 3299 915 798 0 912 911 918 0 0 81 1
 802 3864 671 798 912 0 797 811 919 81 1 801 3710 896 793 918 797 912 794 920 83
 3 917 .752941176470588 .752941176470588 .752941176470588 81 2 918 3301 915 793
 0 801 916 921 0 0 81 1 794 3711 896 615 921 792 801 922 923 83 3 920 .752941176
470588 .752941176470588 .752941176470588 81 2 921 3303 915 615 0 794 918 924 0 0
 81 1 922 3712 896 18 924 795 794 0 925 83 3 923 .752941176470588 .7529411764705
88 .752941176470588 81 2 924 3305 915 18 0 922 921 0 0 0 81 1 795 3862 671 18 92
2 0 792 797 926 83 3 925 .752941176470588 .752941176470588 .752941176470588 82 1
 926 1290404306 80 2 915 927 928 9000 0 0 0 0 3 6 0 0 0 FFFFTFFFFFFFFF9 1 79 255
 14 928 FACE_ID_2_200182 1 919 1270350289 81 2 905 3295 915 816 0 900 929 911 0
 0 81 2 929 3293 915 812 0 906 930 905 0 0 81 1 906 3706 896 812 929 814 813 900
 931 81 2 930 3291 915 810 0 813 932 929 0 0 81 1 813 3705 896 810 930 811 877 9
06 933 81 2 932 3289 915 626 0 877 934 930 0 0 81 1 877 3704 896 626 932 819 935
 813 936 81 2 934 3287 915 208 0 935 937 932 0 0 81 1 935 3703 896 208 934 673 6
72 877 938 81 2 937 3285 915 667 0 672 939 934 0 0 81 1 672 3702 896 667 937 668
 940 935 941 81 2 939 3283 915 662 0 940 942 937 0 0 81 1 940 3701 896 662 939 6
77 943 672 944 81 2 942 3281 915 659 0 943 945 939 0 0 81 1 943 3700 896 659 942
 883 898 940 946 81 2 945 3279 915 655 0 898 897 942 0 0 81 1 898 3699 896 655 9
45 878 891 943 947 81 2 897 3277 915 231 0 891 948 945 0 0 81 2 948 3275 915 222
 0 888 949 897 0 0 81 1 888 3697 896 222 948 887 950 891 951 81 2 949 3273 915 6
29 0 950 952 948 0 0 81 1 950 3696 896 629 949 691 953 888 954 81 2 952 3271 915
 692 0 953 955 949 0 0 81 1 953 3695 896 692 952 694 956 950 957 81 2 955 3269 9
15 695 0 956 958 952 0 0 81 1 956 3694 896 695 955 698 959 953 960 81 2 958 3267
 915 699 0 959 961 955 0 0 81 1 959 3693 896 699 958 702 962 956 963 81 2 961 32
65 915 703 0 962 964 958 0 0 81 1 962 3692 896 703 961 706 965 959 966 81 2 964
 3263 915 707 0 965 967 961 0 0 81 1 965 3691 896 707 964 790 968 962 969 81 2 9
67 3261 915 780 0 968 970 964 0 0 81 1 968 3690 896 780 967 786 971 965 972 81 2
 970 3259 915 773 0 971 973 967 0 0 81 1 971 3689 896 773 970 779 974 968 975 81
 2 973 3257 915 711 0 974 976 970 0 0 81 1 974 3688 896 711 973 772 977 971 978
 81 2 976 3255 915 637 0 977 979 973 0 0 81 1 977 3687 896 637 976 710 980 974 9
81 81 2 979 3253 915 633 0 980 982 976 0 0 81 1 980 3686 896 633 979 717 983 977
 984 81 2 982 3251 915 718 0 983 985 979 0 0 81 1 983 3685 896 718 982 727 986 9
80 987 81 2 985 3249 915 728 0 986 988 982 0 0 81 1 986 3684 896 728 985 740 989
 983 990 81 2 988 3247 915 733 0 989 991 985 0 0 81 1 989 3683 896 733 988 737 9
92 986 993 81 2 991 3245 915 730 0 992 994 988 0 0 81 1 992 3682 896 730 991 732
 995 989 996 81 2 994 3243 915 734 0 995 997 991 0 0 81 1 995 3681 896 734 994 7
43 998 992 999 81 2 997 3241 915 744 0 998 1000 994 0 0 81 1 998 3680 896 744 99
7 750 1001 995 1002 81 2 1000 3239 915 605 0 1001 1003 997 0 0 81 1 1001 3679 89
6 605 1000 747 1004 998 1005 81 2 1003 3237 915 748 0 1004 1006 1000 0 0 81 1 10
04 3678 896 748 1003 753 1007 1001 1008 81 2 1006 3235 915 754 0 1007 1009 1003
 0 0 81 1 1007 3677 896 754 1006 757 1010 1004 1011 81 2 1009 3233 915 758 0 101
0 1012 1006 0 0 81 1 1010 3676 896 758 1009 761 1013 1007 1014 81 2 1012 3231 91
5 721 0 1013 1015 1009 0 0 81 1 1013 3675 896 721 1012 764 1016 1010 1017 81 2 1
015 3229 915 664 0 1016 1018 1012 0 0 81 1 1016 3674 896 664 1015 720 1019 1013
 1020 81 2 1018 3227 915 642 0 1019 1021 1015 0 0 81 1 1019 3673 896 642 1018 72
3 1022 1016 1023 81 2 1021 3225 915 612 0 1022 1024 1018 0 0 81 1 1022 3672 896
 612 1021 725 1025 1019 1026 81 2 1024 3223 915 712 0 1025 1027 1021 0 0 81 1 10
25 3671 896 712 1024 714 1028 1022 1029 81 2 1027 3221 915 650 0 1028 1030 1024
 0 0 81 1 1028 3670 896 650 1027 886 1031 1025 1032 81 2 1030 3219 915 646 0 103
1 1033 1027 0 0 81 1 1031 3669 896 646 1030 885 1034 1028 1035 81 2 1033 3217 91
5 618 0 1034 1036 1030 0 0 81 1 1034 3668 896 618 1033 684 683 1031 1037 81 2 10
36 3215 915 16 0 683 0 1033 0 0 81 1 683 3667 896 16 1036 681 0 1034 1038 83 3 1
038 .752941176470588 .752941176470588 .752941176470588 81 1 684 3834 671 618 103
4 0 681 691 1039 83 3 1037 .752941176470588 .752941176470588 .752941176470588 81
 1 691 3835 671 629 950 0 684 694 1040 82 1 1039 1236271570 81 1 694 3836 671 69
2 953 0 691 698 1041 82 1 1040 915800527 81 1 698 3837 671 695 956 0 694 702 104
2 82 1 1041 752026055 81 1 702 3838 671 699 959 0 698 706 1043 82 1 1042 7997362
63 81 1 706 3839 671 703 962 0 702 710 1044 82 1 1043 809828807 81 1 710 3840 67
1 637 977 0 706 714 1045 82 1 1044 814481863 81 1 714 3841 671 712 1025 0 710 71
7 1046 82 1 1045 660603343 81 1 717 3842 671 633 980 0 714 720 1047 82 1 1046 70
6019780 81 1 720 3843 671 664 1016 0 717 723 1048 82 1 1047 554500559 81 1 723 3
844 671 642 1019 0 720 725 1049 82 1 1048 630850002 81 1 725 3845 671 612 1022 0
 723 727 1050 82 1 1049 631636429 81 1 727 3846 671 718 983 0 725 732 1051 82 1
 1050 632095186 81 1 732 3847 671 730 992 0 727 737 1052 82 1 1051 525140418 81
 1 737 3848 671 733 989 0 732 740 1053 82 1 1052 399049157 81 1 740 3849 671 728
 986 0 737 743 1054 82 1 1053 402981317 81 1 743 3850 671 734 995 0 740 747 1055
 82 1 1054 406913477 81 1 747 3851 671 605 1001 0 743 750 1056 82 1 1055 3950514
61 81 1 750 3852 671 744 998 0 747 753 1057 82 1 1056 -1850080814 81 1 753 3853
 671 748 1004 0 750 757 1058 82 1 1057 -1849949743 81 1 757 3854 671 754 1007 0
 753 761 1059 82 1 1058 -1849818690 81 1 761 3855 671 758 1010 0 757 764 1060 82
 1 1059 -1849687616 81 1 764 3856 671 721 1013 0 761 772 1061 82 1 1060 -1849556
535 81 1 772 3857 671 711 974 0 764 779 1062 82 1 1061 -1849425472 81 1 779 3858
 671 773 971 0 772 786 1063 82 1 1062 716112325 81 1 786 3859 671 780 968 0 779
 790 1064 82 1 1063 717488581 81 1 790 3860 671 707 965 0 786 792 1065 82 1 1064
 718864837 82 1 1065 720241093 81 1 885 3870 671 646 1031 0 883 886 1066 83 3 10
35 .752941176470588 .752941176470588 .752941176470588 81 1 883 3869 671 659 943
 0 878 885 1067 81 1 886 3871 671 650 1028 0 885 887 1068 82 1 1066 1233256911 8
2 1 1068 1232470482 81 1 878 3868 671 655 898 0 819 883 1069 82 1 1067 102642529
5 82 1 1069 1026294226 83 3 1032 .752941176470588 .752941176470588 .752941176470
588 83 3 1029 .752941176470588 .752941176470588 .752941176470588 83 3 1026 .7529
41176470588 .752941176470588 .752941176470588 83 3 1023 .752941176470588 .752941
176470588 .752941176470588 83 3 1020 .752941176470588 .752941176470588 .75294117
6470588 83 3 1017 .752941176470588 .752941176470588 .752941176470588 83 3 1014 .
752941176470588 .752941176470588 .752941176470588 83 3 1011 .752941176470588 .75
2941176470588 .752941176470588 83 3 1008 .752941176470588 .752941176470588 .7529
41176470588 83 3 1005 .752941176470588 .752941176470588 .752941176470588 83 3 10
02 .752941176470588 .752941176470588 .752941176470588 83 3 999 .752941176470588
 .752941176470588 .752941176470588 83 3 996 .752941176470588 .752941176470588 .7
52941176470588 83 3 993 .752941176470588 .752941176470588 .752941176470588 83 3
 990 .752941176470588 .752941176470588 .752941176470588 83 3 987 .75294117647058
8 .752941176470588 .752941176470588 83 3 984 .752941176470588 .752941176470588 .
752941176470588 83 3 981 .752941176470588 .752941176470588 .752941176470588 83 3
 978 .752941176470588 .752941176470588 .752941176470588 83 3 975 .75294117647058
8 .752941176470588 .752941176470588 83 3 972 .752941176470588 .752941176470588 .
752941176470588 83 3 969 .752941176470588 .752941176470588 .752941176470588 83 3
 966 .752941176470588 .752941176470588 .752941176470588 83 3 963 .75294117647058
8 .752941176470588 .752941176470588 83 3 960 .752941176470588 .752941176470588 .
752941176470588 83 3 957 .752941176470588 .752941176470588 .752941176470588 83 3
 954 .752941176470588 .752941176470588 .752941176470588 83 3 951 .75294117647058
8 .752941176470588 .752941176470588 83 3 947 .752941176470588 .752941176470588 .
752941176470588 83 3 946 .752941176470588 .752941176470588 .752941176470588 81 1
 677 3832 671 662 940 0 673 681 1070 83 3 944 .752941176470588 .752941176470588
 .752941176470588 81 1 673 3831 671 208 935 0 668 677 1071 82 1 1070 1218118097
 82 1 1071 1195835857 83 3 941 .752941176470588 .752941176470588 .75294117647058
8 83 3 938 .752941176470588 .752941176470588 .752941176470588 83 3 936 .75294117
6470588 .752941176470588 .752941176470588 83 3 933 .752941176470588 .75294117647
0588 .752941176470588 81 1 814 3866 671 812 906 0 811 819 1072 83 3 931 .7529411
76470588 .752941176470588 .752941176470588 82 1 1072 1268384209 79 15 914 SDL/TY
SA_COLOUR15 910 2911 0 1073 804 1074 17 1073 0 910 1073 1073 0 481 480 0 0 -15 1
074 2912 0 1075 804 0 17 1075 0 1074 1075 1075 0 680 483 0 0 +17 680 0 669 680 6
80 0 1075 483 0 0 -16 483 2905 1076 ?1075 480 524 569 0 0 1 81 2 1076 3483 237 4
83 0 0 456 320 0 0 31 569 2987 0 483 484 527 0 +-.007 .0160746079605 .0234164410
1966855 0 .4226182617406935 .906307787036653 0 .906307787036653 -.42261826174069
35 .00135 31 484 2988 0 480 1077 569 0 +-.007 .01269366186657444 .01616597872337
53 0 .4226182617406935 .906307787036653 0 .906307787036653 -.4226182617406935 .0
0135 31 1077 2989 0 482 568 484 0 +-.097 .01607460796049995 .02341644101966855 0
 .4226182617406935 .906307787036653 0 -.906307787036653 .4226182617406935 .00135
 16 482 2923 1078 ?1079 559 480 1077 0 0 1 31 568 2990 0 559 0 1077 0 +-.097 .01
269366186657442 .0161659787233753 0 .4226182617406935 .906307787036653 0 -.90630
7787036653 .4226182617406935 .00135 81 2 1078 3553 237 482 0 0 599 421 0 0 17 10
79 0 1080 1079 1079 0 1081 482 0 0 +15 1080 2930 0 1079 812 0 17 1081 0 675 1081
 1081 0 1079 482 0 0 -15 675 2850 0 1081 208 203 81 2 599 3552 237 243 0 0 336 1
078 0 0 81 2 421 3554 237 419 0 0 1078 425 0 0 81 2 425 3555 237 423 0 0 421 272
 0 0 81 2 272 3556 237 270 0 0 425 585 0 0 81 2 585 3557 237 493 0 0 272 350 0 0
 81 2 350 3558 237 348 0 0 585 267 0 0 81 2 267 3559 237 255 0 0 350 437 0 0 81
 2 437 3560 237 435 0 0 267 312 0 0 81 2 312 3561 237 291 0 0 437 571 0 0 81 2 5
71 3562 237 514 0 0 312 589 0 0 81 2 589 3563 237 543 0 0 571 342 0 0 81 2 342 3
564 237 334 0 0 589 258 0 0 81 2 258 3565 237 256 0 0 342 0 0 0 81 2 336 3551 23
7 333 0 0 366 599 0 0 81 2 366 3550 237 364 0 0 460 336 0 0 81 2 460 3549 237 45
8 0 0 383 366 0 0 81 2 383 3548 237 381 0 0 445 460 0 0 81 2 445 3547 237 443 0
 0 239 383 0 0 81 2 239 3546 237 591 0 0 234 445 0 0 81 2 456 3482 237 454 0 0 3
46 1076 0 0 81 2 320 3484 237 310 0 0 1076 276 0 0 81 2 276 3485 237 269 0 0 320
 302 0 0 81 2 302 3486 237 300 0 0 276 393 0 0 81 2 346 3481 237 344 0 0 418 456
 0 0 81 2 418 3480 237 416 0 0 315 346 0 0 81 2 315 3479 237 286 0 0 216 418 0 0
 81 2 216 3478 237 206 0 0 580 315 0 0 81 2 580 3477 237 499 0 0 254 216 0 0 81
 2 254 3476 237 252 0 0 577 580 0 0 81 2 577 3475 237 510 0 0 603 254 0 0 17 481
 0 805 481 481 0 1073 480 0 0 +15 805 2915 0 481 798 0 83 3 908 .752941176470588
 .752941176470588 .752941176470588 15 903 2933 0 567 816 0 50 904 2980 0 816 0 8
18 0 +-.097 .01269366186657442 .0161659787233753 0 .4226182617406935 .9063077870
36653 0 -.906307787036653 .4226182617406935 51 818 2978 0 812 904 806 0 +-.097 .
01269366186657442 .0161659787233753 0 .4226182617406935 .906307787036653 .00135
 0 -.906307787036653 .4226182617406935 50 806 2977 0 798 818 808 0 +-.007 .01269
366186657444 .0161659787233753 0 -.4226182617406935 -.906307787036653 0 .9063077
87036653 -.4226182617406935 17 567 0 903 567 567 0 1082 559 0 0 +17 1082 0 817 1
082 1082 0 567 559 0 0 -15 817 2929 0 1082 812 1080 83 3 899 .752941176470588 .7
52941176470588 .752941176470588 79 14 895 SWEntUnchanged82 1 890 1004011986 17 5
62 0 820 562 562 0 558 557 0 0 -82 1 879 1184629201 82 1 815 1280180689 17 526 0
 799 526 526 0 1083 524 0 0 +15 807 2889 0 1084 793 0 17 1084 0 807 1084 1084 0
 498 497 0 0 -17 498 0 751 498 498 0 1084 497 0 0 +15 751 2873 0 498 744 824 17
 1083 0 678 1083 1083 0 526 524 0 0 -15 678 2862 0 1083 662 661 82 1 803 1282343
377 82 1 796 1288438226 80 2 768 1085 1086 8044 0 0 0 0 3 5 0 0 0 FFFFTFFFTTFFFF
3 2 84 255 6 788 BAAAAB83 3 789 0 .00170000000000003 .0017 79 17 1086 SDL/TYSA_B
LEND_ID84 6 784 BAAAAB83 3 785 -6505213034913e-31 .0017 .0017 84 6 777 BAAAAB83
 3 778 -8673617379884e-31 .0017 .0017 84 6 770 BAAAAB83 3 771 -19515639104739e-3
1 .0017 .0017 82 1 685 1237057999 82 1 674 1206976977 17 29 0 28 665 26 62 32 53
2 0 578 +17 36 0 35 656 33 178 30 503 0 663 +81 2 592 3473 237 505 0 0 378 603 0
 0 81 2 378 3472 237 376 0 0 575 592 0 0 81 2 575 3471 237 554 0 0 284 378 0 0 8
1 2 284 3470 237 282 0 0 566 575 0 0 81 2 566 3469 237 559 0 0 265 284 0 0 81 2
 265 3468 237 250 0 0 369 566 0 0 81 2 369 3467 237 367 0 0 602 265 0 0 81 2 602
 3466 237 233 0 0 389 369 0 0 81 2 389 3465 237 380 0 0 318 602 0 0 81 2 318 346
4 237 281 0 0 582 389 0 0 81 2 582 3463 237 539 0 0 352 318 0 0 81 2 352 3462 23
7 338 0 0 397 582 0 0 81 2 397 3461 237 395 0 0 563 352 0 0 81 2 563 3460 237 50
0 0 0 595 397 0 0 81 2 595 3459 237 506 0 0 0 563 0 0 79 19 478 EDGE_PERM_ID_2_2
00319 17 100 0 1 0 9 5 S0 74 4 CI16 index_map_offset0 0 1 dCCZ20 15 11 0 0 901 7
83 1087 1088 1089 1090 924 258 13 922 2 0 0 0 0 0 0 0 0 0 81 2 1087 2237 1091 1
 0 1088 0 0 0 1092 81 2 1088 2251 1093 1 1087 1089 0 0 0 1094 81 1 1089 3163 109
5 1 1088 1090 0 0 1096 81 2 1090 3212 1097 1 1089 13 0 0 0 1098 81 2 13 3665 109
9 1 1090 2 0 0 0 0 80 2 1099 1100 1101 9000 0 0 0 0 3 5 0 0 0 FFTFFFFFFFFFFF9 1
 79 16 1101 BODY_RECIPE_200180 2 1097 1102 1103 9000 0 0 0 0 3 5 0 0 0 FFTFFFFFF
FFFFF9 1 82 1 1098 1 79 24 1103 BODY_IN_LIGHTWEIGHT_PERM80 1 1095 1104 1105 9000
 1 1 1 1 1 1 1 1 0 FFTFFFFFFFFFFF1 82 1 1096 3379198 79 10 1105 BODY_MATCH80 2 1
093 1106 1107 9000 0 0 0 0 3 5 0 0 0 FFTFFFFFFFFFFF9 1 82 1 1094 207 79 30 1107
 LAST_BODY_MODIFYING_FEATURE_ID80 2 1091 1108 1109 9000 0 0 0 0 3 5 0 0 0 FFTFFF
FFFFFFFT9 1 82 1 1092 223 79 19 1109 ENT_TIME_STAMP_200180 2 12 237 1110 9000 0
 0 0 0 3 5 0 0 0 FFTFFFFFFFFFFF9 1 82 1 14 114 79 12 1110 ATOM_ID_20011 0 
